<?xml version="1.0" encoding="UTF-8"?>
<svg version="1.1" viewBox="0 0 2048 1351" width="1280" height="1280" xmlns="http://www.w3.org/2000/svg">
<path transform="translate(1750)" d="m0 0h25l31 3 32 6 30 8 28 10 24 11 20 11 16 11 13 10 13 12 11 11 11 14 10 15 8 16 8 19 7 25 4 22 4 36 3 52v51l-2 27-1 4h-56l-105-1 20 11 20 13 19 14 15 13 23 23 9 11 14 19 11 19 8 16 8 19 7 22 5 21 4 29 1 14v30l-2 25-5 32-9 36-9 26-11 24-11 21-12 19-10 14-11 14-11 13-12 13-20 20-11 9-10 9-16 12-11 8 104 1v389l-204 1-16 8-18 6-14 3-9 1h-21l-19-3-17-5-14-6-8-5h-28l-12 4-13 2h-12l-13-2-13-4h-48l-13 4-12 2h-21l-15-3-9-3h-76l-19 5-20 3h-35l-20-3-19-5h-42l-15 5-23 5-8 1h-38l-24-4-20-6-5-2h-180l-166 1-29 6-26 3h-44l-26-3-29-6h-197l-19 7-21 5-16 2h-28l-21-3-19-5-16-6h-36l-15 5-23 5-9 1h-37l-24-3-19-5-15-6-14-8-13-11-10-12-9-17-5-17-2-16 1-236 4-18 6-14 9-13 12-12 14-9 16-7-61-1v-919h331l3 13 38 205 4 22 1-1 34-238 1-1h350l1 276 1 129 7-38 7-31 12-42 11-32 13-32 12-26 13-25 12-20 14-21 12-16 9-11 12-14 23-23 11-9 15-12 18-12 19-11 25-12 24-9 23-7 25-6 29-5 30-3 20-1h17l26 1 32 3 29 5 28 7 23 8 20 9 19 10 15 10 13 10 10 9 8 7 12 13 12 16 11 18 8 16 8 21 6 22 3 18 2 22 5-25 8-26 9-20 8-16 12-19 11-14 12-14 16-16 11-9 17-13 19-12 22-12 22-10 25-9 25-7 25-5 24-3z"/>
<path transform="translate(578,535)" d="m0 0h147l4 2 1 2 1 162 5 15 9 14 3 2h120l-9-28-8-29-6-26-6-34-3-23-2-20-1-19v-18h182l1 1 1 32 4 26 5 22 9 24 8 16 10 15 11 13 7 7 17 13 21 11 18 6 10 2 10 1h15l16-2 15-4 16-6 21-11 14-10 14-11 11-11 1-77-100-1-18-1v-54h102l172 1 1 79v111l264-2 63-1 12-11 9-10 8-14 2-7v-14l-4-9-6-8-9-8-13-9-26-16-22-13-25-16-22-15-14-10-19-14-14-11-1-2h20l54 1 292 1 20 1 3 10 5 30 2 33-2 35-5 29-7 28-11 31-9 20-12 22-12 19-9 13-10 13-11 13-7 8-6 7h-2l-2 4-10 10-8 7-13 12-10 8-21 16-5 3h-385l-12-11-7-10-5-10-3-13h-2l-9 10-9 11-7 7-14 8-16 5-21 3h-670l-17-4-16-6-14-7-16-12-9-9-7-10-6-10-2-40-3-92-6-178z" fill="#A8A8A8"/>
<path transform="translate(1760,53)" d="m0 0h20l27 2 25 4 23 6 17 6 18 8 16 9 13 9 13 11 3 2v2l4 2 10 11 9 12 9 14 8 15 9 22 9 28 6 22 4 22 2 17 1 24-2 31-1 1h-170l-1-28-4-16-5-13-9-14-10-13-9-9-13-9-11-5-13-3h-15l-16 4-14 7-9 7-6 5-6 8-8 16-2 11v15l4 16 8 14 9 10 12 9 16 8 38 7 26 7 27 9 30 13 21 11 18 11 14 10 13 10 14 12 8 7 4 5 5 5 12 13v2h2l14 19 11 17 5 10h-268l-124-1-9-9v-2h-2l-9-11-11-14-7-10-11-17-13-24-5-11-8-20-8-27-6-33-2-25v-29l2-23 4-21 4-17 9-25 8-16 9-16 12-17 12-14 3-4h2l1-3h2l1-3h2v-2l8-7 10-9 16-12 19-12 19-10 25-10 24-7 21-4 19-2z" fill="#A8A8A8"/>
<path transform="translate(1140,51)" d="m0 0h70l29 3 25 5 23 7 21 9 21 12 13 10 11 10 13 13 12 16 9 14 6 10 8 16 12 25 11 27 7 25 5 22 3 21 2 26v21l-1 4h-179l-3-19-5-15-7-14-8-11-2-4-3-1v-2l-4-2-7-6-13-8-15-6-14-4-14-2h-28l-15 3-12 5-11 6-10 8-10 9-11 14-9 14-9 16-9 21-8 22-8 30-6 31-3 21-3 34-1 28h-179l-1-1-2-21-1-25v-24l1-25 3-31 5-30 6-28 9-32 8-23 13-31 9-20 8-17 10-19 12-20 10-14 8-11h2l2-4 14-15h2v-2l11-9 10-8 17-11 22-12 24-10 24-8 25-6 32-5z" fill="#A8A8A8"/>
<path transform="translate(42,51)" d="m0 0h254l2 6 9 45 5 24 11 53 10 50 5 24 10 50 8 39 12 59 5 24 11 53 6 30v5h-133l-9-40-9-41-7-34-5-22-12-55-7-31 1 38 1 17 4 111 2 49v8h-174z" fill="#A8A8A8"/>
<path transform="translate(469,53)" d="m0 0h250l1 31 5 233 4 176v17h-150l-3-52-2-47-2-36-3-62-1-24-3 17-12 87-7 53-5 35-4 29h-130l3-26 8-58 7-54 5-36 7-53 6-43 14-105 5-36 6-45z" fill="#A8A8A8"/>
<path transform="translate(260,535)" d="m0 0h130l7 29h1l7-27 2-2h126l-1 13-11 77-7 51-7 48-4 30-11 78-7 51-4 26-1 2h-137l-2-3-13-60-8-35-8-36-8-38-7-30-8-36-14-65-7-31-7-32-2-9z" fill="#A8A8A8"/>
<path transform="translate(43,535)" d="m0 0h170l1 38 4 279v59h-175l-1-1v-374z" fill="#A8A8A8"/>
<path transform="translate(292,966)" d="m0 0h15l17 3 12 4 15 8 10 8 11 14 6 14 1 5 1 18 2 168v36l-2 10-8 16-3 4h-2l-2 4-10 8-15 8-16 4-16 1-17-2-17-5-11-6-9-7-9-9-9-13-6-16-1-27-1-45-1-80v-69l4-13 7-12 2-3h2l2-4 8-7 13-8 15-5z" fill="#A8A8A8"/>
<path transform="translate(1693,969)" d="m0 0h27l17 4 13 6 11 7 11 10 7 10 5 11 2 9 1 53 1 94v74l-4 13-6 10-9 10-13 9-12 5-11 3-7 1h-19l-16-3-13-5-11-6-12-11-8-9-6-11-4-11-1-3-2-100-1-87v-27l2-9 4-10 7-11 10-10 12-8 12-5z" fill="#A8A8A8"/>
<path transform="translate(395,969)" d="m0 0h58l7 24 13 47 14 51 4 14-1-45-2-53-1-38h64v329h-58l-3-9-9-32-7-24-12-43-5-17v23l3 82v20l-56 1-1-1-1-25-2-93-2-74-3-118z" fill="#A8A8A8"/>
<path transform="translate(1801,969)" d="m0 0h58l5 16 17 61 16 58v-15l-3-85-1-35h64v329h-58l-10-34-11-40-7-24-8-28v20l4 106h-57l-1-5-5-191-3-118z" fill="#A8A8A8"/>
<path transform="translate(899,970)" d="m0 0h103l12 3 10 6 7 8 7 14 3 11v96l-3 8-7 8-12 5-5 1 13 4 8 6 6 8 3 7 1 5v139h-61v-122l-1-16-3-7-3-2h-10l-3 1-1 146h-64z" fill="#A8A8A8"/>
<path transform="translate(1063,970)" d="m0 0h65l1 1v263l2 6 4 1 5-2 3-4 1-5 1-260h69v272l-5 12-8 12-9 11-13 10-12 6-12 4-13 2h-13l-16-3-16-7-10-8-8-8-9-14-5-11-1-3-1-13z" fill="#A8A8A8"/>
<path transform="translate(119,961)" d="m0 0h17l19 3 16 6 12 7 12 11 7 9 6 12 2 6v84l-1 7h-71l-1-89-3-3h-8l-3 4v67l1 152 3 5 3 2h7l5-4 1-2 1-75 25-1h44v86l-4 12-4 8-9 11-10 8-16 8-14 4-6 1h-19l-15-3-19-8-15-10-10-9-7-10-5-10-4-16-2-13-2-40-2-95-2-41v-28l4-16 5-10 9-10 7-6 16-8 14-4z" fill="#A8A8A8"/>
<path transform="translate(625,969)" d="m0 0h31l15 3 12 5 8 6 5 5 7 10 5 10 4 16 2 17v14l-2 13h-60l1-15v-12l-2-10-3-6-7-2-6 3-4 8-1 6v19l3 14 5 10 9 10 14 10 16 10 11 9 6 5 7 8 10 13 9 16 6 15 3 12 1 7v24l-3 14-7 16-10 14-5 6h-2l-1 3-11 9-13 8-14 5-12 2h-13l-15-3-13-5-12-7-9-7v-2l-3-1-8-10-4-6-4-9v-68h64v58l4 6 5 3h6l6-4 6-8 2-5v-19l-5-16-7-14-9-13-4-4v-2l-4-2-11-8-19-11-10-9-5-5-9-11-9-16-5-14-3-15v-32l4-20 5-16 5-10 10-11 14-8 12-4z" fill="#A8A8A8"/>
<path transform="translate(1292,969)" d="m0 0h27l17 4 12 5 13 9 8 8 8 13 4 11 1 9-2 75-1 12h-59v-84l-3-3-5-2h-7l-8 4-2 3-1 46-1 89-1 65 3 7 4 3 7 1 7-4 4-7 1-67h67v28l-1 36-4 17-8 16-8 10-7 7-10 7-13 6-15 4-7 1h-18l-15-3-10-4-11-7-7-6-9-12-6-14-2-8v-135l1-86 3-12 7-14 9-10 10-8 13-6z" fill="#A8A8A8"/>
<path transform="translate(1397,970)" d="m0 0h149l1 1v68l-1 1h-38l1 122v137h-72v-68l1-73 1-102 1-16h-42l-1-1z" fill="#A8A8A8"/>
<path transform="translate(728,970)" d="m0 0h149v70h-38l2 236v22l-1 1h-72l-1-3 1-52 2-195 1-9h-42l-1-1z" fill="#A8A8A8"/>
<path transform="translate(1562,970)" d="m0 0h60v59l-1 81-1 41-2 146-1 1h-61v-40l2-104 1-38 2-124z" fill="#A8A8A8"/>
<path transform="translate(1153,446)" d="m0 0h278v71h-278z" fill="#A8A8A8"/>
<path transform="translate(1707,1025)" d="m0 0h8l6 4 2 5v199l-3 5-4 3-7 1-7-3-3-5v-201l3-5z"/>
<path transform="translate(301,1023)" d="m0 0h7l5 3 3 5v203l-3 5-6 3-8-1-5-4-1-2v-205l2-4z"/>
<path transform="translate(969,1029)" d="m0 0 7 1 7 8 1 9v43l-3 8-6 3h-11v-70z"/>
</svg>
